<?xml version="1.0" standalone="no"?>
<!DOCTYPE svg PUBLIC "-//W3C//DTD SVG 20010904//EN"
 "http://www.w3.org/TR/2001/REC-SVG-20010904/DTD/svg10.dtd">
<svg version="1.0" xmlns="http://www.w3.org/2000/svg"
 width="1280.000000pt" height="514.000000pt" viewBox="0 0 1280.000000 514.000000"
 preserveAspectRatio="xMidYMid meet">

<g transform="translate(0.000000,514.000000) scale(0.100000,-0.100000)"
fill="#000000" stroke="none">
<path d="M5 2575 l0 -2565 6398 0 6397 0 0 2565 0 2565 -6397 0 -6398 0 0
-2565z m6135 570 l0 -85 -65 0 -65 0 0 85 0 85 65 0 65 0 0 -85z m2590 0 l0
-85 -60 0 -60 0 0 85 0 85 60 0 60 0 0 -85z m-3198 65 c2 -6 2 -31 0 -55 l-4
-45 -89 0 -89 0 0 -365 0 -365 -55 0 -55 0 0 365 0 364 -92 3 -93 3 -3 53 -3
52 240 0 c153 0 241 -4 243 -10z m422 -232 l0 -53 -43 -7 c-56 -10 -101 -36
-128 -78 -22 -32 -23 -42 -23 -241 l0 -209 -60 0 -60 0 0 315 0 315 60 0 c53
0 60 -2 60 -20 0 -25 1 -25 42 0 29 17 133 41 148 34 3 -1 5 -26 4 -56z m726
31 c24 -11 59 -31 76 -44 29 -22 33 -23 45 -9 7 9 36 27 63 41 61 31 173 42
238 24 74 -21 149 -80 181 -141 l27 -54 0 -218 0 -219 -62 3 -63 3 -5 217 c-5
198 -7 219 -25 244 -48 63 -164 86 -233 44 -67 -41 -72 -60 -72 -297 l0 -213
-65 0 -65 0 0 219 c0 219 0 219 -25 249 -75 89 -242 84 -290 -8 -12 -23 -15
-74 -15 -245 l0 -215 -65 0 -65 0 0 315 0 315 60 0 c53 0 60 -2 60 -20 0 -25
-1 -25 51 5 59 33 181 35 249 4z m1193 -8 c26 -14 54 -32 63 -42 14 -16 18
-15 65 17 28 18 67 38 87 44 54 15 152 12 203 -5 63 -22 139 -83 166 -134 22
-42 23 -53 23 -268 l0 -224 -62 3 -63 3 -3 214 c-2 212 -3 215 -28 248 -35 46
-73 63 -141 63 -68 0 -113 -23 -143 -72 -18 -30 -20 -51 -20 -246 l0 -213 -62
3 -63 3 -5 222 c-5 216 -6 222 -29 247 -52 55 -156 74 -228 39 -68 -32 -73
-51 -73 -296 l0 -218 -62 3 -63 3 -3 313 -2 312 65 0 c52 0 65 -3 63 -14 -4
-19 7 -17 57 6 59 27 193 22 258 -11z m1462 -3 c62 -32 108 -79 134 -138 19
-41 21 -65 21 -257 l0 -213 -60 0 -60 0 0 188 c-1 240 -13 278 -104 324 -53
27 -172 23 -212 -8 -68 -50 -69 -55 -72 -290 l-3 -215 -62 3 -62 3 3 310 3
310 59 3 c59 3 60 2 60 -23 0 -25 1 -25 25 -9 53 34 98 44 190 41 73 -3 99 -8
140 -29z m749 18 c26 -8 62 -26 81 -40 18 -14 36 -26 39 -26 3 0 6 16 6 35 l0
36 61 -3 60 -3 -1 -314 c0 -282 -2 -319 -19 -356 -25 -57 -83 -110 -160 -148
-63 -30 -72 -32 -181 -32 -103 0 -121 3 -171 26 -72 34 -132 88 -158 143 -34
69 -30 76 39 76 33 0 60 -4 60 -10 0 -21 68 -85 115 -106 83 -39 202 -31 276
19 37 24 79 97 79 136 l0 24 -22 -20 c-13 -11 -43 -31 -68 -44 -40 -21 -59
-24 -160 -24 -106 0 -119 2 -172 28 -280 138 -253 510 45 602 56 18 193 18
251 1z m-3944 -311 l0 -315 -65 0 -65 0 0 315 0 315 65 0 65 0 0 -315z m2590
0 l0 -315 -60 0 -59 0 -3 298 c-2 164 -2 306 0 315 3 14 15 17 63 17 l59 0 0
-315z m1420 -650 c-52 -7 -149 -17 -215 -24 -125 -11 -1011 -99 -1790 -176
-247 -25 -679 -67 -960 -95 -280 -28 -576 -57 -658 -65 -81 -8 -156 -15 -167
-15 -19 0 -20 7 -20 154 l0 154 63 6 c34 3 359 10 722 16 363 6 854 15 1090
20 237 5 727 14 1090 20 363 6 680 12 705 14 25 1 88 3 140 3 l95 1 -95 -13z
m-517 -415 c44 -24 47 -24 47 -5 0 9 9 15 24 15 l23 0 -16 -82 c-14 -70 -20
-83 -36 -83 -15 0 -21 10 -28 41 -9 48 -36 77 -72 77 -37 0 -55 -21 -55 -64 0
-31 9 -49 53 -99 89 -105 98 -125 95 -204 -4 -65 -6 -70 -45 -106 -57 -54
-114 -62 -186 -27 -43 22 -53 24 -60 12 -8 -15 -47 -21 -47 -7 0 4 7 42 15 85
8 43 15 81 15 83 0 2 9 4 20 4 13 0 20 -7 20 -20 0 -32 31 -100 51 -110 30
-16 78 -11 99 10 38 38 21 96 -56 185 -57 64 -74 102 -74 162 0 118 111 187
213 133z m707 13 c0 -5 -25 -107 -55 -227 -30 -121 -55 -231 -55 -244 0 -33
21 -23 34 16 11 31 17 37 36 30 13 -4 -32 -99 -59 -122 -28 -25 -79 -25 -98 0
-21 28 -11 115 32 264 20 69 39 148 42 177 5 50 5 52 -21 59 -18 4 -26 12 -24
23 2 11 18 18 58 22 87 9 110 10 110 2z m-3958 -173 l3 -75 92 -3 92 -3 3 83
c2 47 7 83 13 83 6 0 11 -70 13 -183 2 -145 0 -183 -10 -180 -9 3 -14 32 -16
91 l-3 87 -94 0 -95 0 0 -90 c0 -53 -4 -90 -10 -90 -6 0 -10 69 -10 187 0 118
3 184 10 177 5 -5 10 -43 12 -84z m1099 61 c66 -66 7 -161 -100 -161 -34 0
-71 -39 -71 -76 0 -12 11 -36 24 -51 33 -38 102 -40 140 -4 14 14 26 30 26 38
0 7 7 13 15 13 18 0 18 -2 3 -35 -6 -14 -40 -46 -75 -71 -35 -25 -63 -49 -63
-55 0 -14 53 -11 95 7 36 15 58 12 39 -5 -5 -5 -30 -16 -55 -26 -44 -16 -49
-16 -83 0 -20 10 -36 21 -36 25 0 5 14 19 32 31 22 16 27 24 17 27 -106 32
-140 116 -70 175 l28 23 -23 28 c-33 38 -31 80 5 117 24 24 38 29 76 29 38 0
52 -5 76 -29z m420 19 c50 -27 60 -114 17 -144 -21 -15 -21 -15 10 -41 87 -73
25 -175 -107 -175 -89 0 -91 5 -91 190 0 108 4 160 12 168 15 15 132 16 159 2z
m-3431 -45 c17 -20 5 -45 -20 -45 -23 0 -35 22 -26 45 7 19 30 19 46 0z m2450
0 c0 -8 -7 -15 -15 -15 -8 0 -15 7 -15 15 0 8 7 15 15 15 8 0 15 -7 15 -15z
m-2830 -13 c0 -10 -5 -23 -10 -28 -7 -7 -10 -62 -8 -145 3 -126 4 -134 23
-134 19 0 20 8 23 134 2 83 -1 138 -8 145 -5 5 -10 18 -10 28 0 15 9 18 50 18
43 0 50 -3 50 -20 0 -10 -6 -23 -14 -27 -11 -6 -15 -40 -18 -151 -3 -137 -4
-145 -27 -163 -32 -26 -77 -24 -106 6 -24 23 -25 29 -25 163 0 115 -3 141 -15
146 -8 3 -15 15 -15 26 0 18 6 20 55 20 46 0 55 -3 55 -18z m4680 -17 c0 -32
2 -35 29 -35 42 0 48 -18 9 -22 l-33 -3 -3 -98 c-3 -93 -2 -98 20 -106 20 -8
21 -10 5 -16 -40 -16 -47 9 -47 166 0 93 4 149 10 149 6 0 10 -16 10 -35z
m1205 -39 c17 -12 21 -12 30 1 7 9 24 13 51 11 l41 -3 -28 -100 c-35 -125 -46
-195 -30 -195 7 0 20 13 29 30 17 30 42 40 42 17 0 -27 -58 -104 -88 -116 -35
-15 -67 -3 -77 29 -6 20 -7 20 -37 -5 -16 -14 -40 -28 -53 -31 -55 -14 -115
51 -115 126 0 82 56 196 114 231 37 22 94 25 121 5z m637 3 c98 -44 89 -234
-16 -326 -99 -88 -226 -23 -226 115 0 147 132 262 242 211z m282 -10 c8 -12
12 -28 9 -35 -8 -22 15 -16 27 6 14 25 61 50 96 50 68 0 80 -58 39 -184 -27
-81 -31 -116 -15 -116 5 0 16 14 25 30 17 32 35 40 35 15 0 -44 -72 -125 -111
-125 -30 0 -59 36 -59 73 0 19 11 67 25 107 25 73 33 140 17 140 -13 0 -48
-41 -65 -75 -8 -16 -29 -76 -46 -132 l-32 -103 -38 0 c-21 0 -40 2 -43 5 -3 3
8 58 23 123 30 119 36 172 20 172 -5 0 -14 -13 -21 -30 -12 -29 -40 -42 -40
-18 0 19 49 96 68 107 29 18 70 13 86 -10z m-4081 -9 c25 -20 25 -20 30 0 3
11 10 20 16 20 7 0 11 -41 11 -125 0 -84 -4 -125 -11 -125 -6 0 -13 9 -16 20
-5 20 -5 20 -30 0 -31 -24 -92 -26 -134 -4 -76 39 -77 177 -1 218 39 22 104
20 135 -4z m105 -108 c2 -104 0 -122 -13 -122 -13 0 -15 20 -15 126 0 96 3
125 13 122 8 -3 13 -40 15 -126z m50 98 c4 1 18 7 32 15 34 19 80 19 80 0 0
-11 -7 -14 -25 -9 -31 8 -84 -42 -86 -80 -1 -14 -3 -30 -4 -36 -1 -5 -3 -33
-4 -61 -1 -30 -5 -48 -11 -44 -12 7 -14 228 -2 239 4 4 8 1 10 -8 2 -9 7 -16
10 -16z m1221 5 c28 -24 59 -90 47 -102 -3 -3 -52 -5 -110 -4 -64 1 -107 -2
-111 -8 -9 -16 24 -68 52 -80 33 -15 79 -14 113 4 32 16 49 5 24 -16 -21 -18
-126 -24 -153 -9 -51 27 -75 111 -51 174 24 64 133 87 189 41z m259 5 c32 -20
32 -20 32 0 0 11 5 20 10 20 6 0 10 -48 10 -125 0 -77 -4 -125 -10 -125 -5 0
-10 10 -10 22 0 21 -1 21 -20 3 -13 -11 -41 -20 -75 -23 -52 -4 -56 -3 -90 31
-32 32 -35 40 -35 92 0 51 3 60 34 91 28 28 41 34 78 34 25 0 56 -8 76 -20z
m102 -75 c0 -84 2 -96 22 -115 32 -29 81 -27 107 6 18 23 21 41 21 116 0 67 3
89 13 86 15 -6 21 -75 12 -147 -9 -69 -40 -101 -99 -101 -53 0 -83 21 -96 68
-11 41 -14 165 -3 175 18 19 23 -1 23 -88z m322 -1 c3 -86 5 -98 27 -115 30
-24 72 -24 102 0 20 16 23 29 27 115 7 157 24 113 20 -53 -3 -149 -3 -150 -31
-179 -16 -17 -42 -33 -59 -36 -42 -8 -108 10 -108 30 0 12 5 14 18 8 32 -14
90 -16 112 -4 22 12 50 65 50 95 0 15 -2 15 -22 1 -34 -24 -92 -20 -125 8 -27
23 -28 29 -31 125 -3 63 0 101 6 101 6 0 12 -41 14 -96z m-4521 45 c8 -5 14
-40 17 -101 2 -51 8 -97 13 -103 5 -5 9 -17 9 -27 0 -14 -8 -18 -35 -18 l-35
0 0 104 c0 101 -7 129 -27 103 -14 -17 -17 -154 -4 -162 6 -3 11 -15 11 -26 0
-16 -7 -19 -45 -19 -41 0 -45 2 -42 22 2 12 8 23 13 25 13 4 7 152 -6 169 -24
28 -4 43 59 42 32 0 65 -4 72 -9z m119 -93 c0 -59 4 -108 10 -111 6 -3 10 -15
10 -26 0 -15 -7 -19 -37 -19 l-38 0 0 130 0 130 28 0 27 0 0 -104z m160 92 c0
-5 0 -24 0 -43 0 -28 -4 -35 -19 -35 -12 0 -21 8 -23 22 -4 27 -28 37 -28 11
0 -11 18 -38 40 -61 31 -32 40 -49 40 -76 0 -45 -47 -95 -64 -68 -3 5 -19 7
-36 4 -30 -4 -30 -4 -30 42 0 42 2 46 24 46 18 0 26 -6 28 -22 4 -28 28 -36
28 -10 0 11 -18 39 -40 62 -68 71 -49 141 36 137 24 -1 44 -5 44 -9z m155 -7
c11 -13 18 -38 19 -73 l1 -53 -43 -3 c-42 -3 -43 -4 -40 -35 4 -38 32 -49 41
-17 5 18 9 20 26 11 17 -10 19 -15 10 -35 -26 -57 -98 -56 -120 1 -17 45 -7
177 15 202 24 26 67 27 91 2z m109 -12 l13 -31 11 31 c14 40 52 44 52 6 0 -14
-4 -25 -8 -25 -5 0 -14 -17 -20 -39 -13 -41 -3 -90 24 -122 24 -27 17 -49 -15
-49 -25 0 -30 5 -38 38 l-9 37 -13 -37 c-10 -30 -18 -38 -37 -38 -27 0 -32 24
-10 49 25 30 36 79 24 114 -6 17 -17 39 -24 48 -23 26 -17 49 11 49 20 0 29
-8 39 -31z"/>
<path d="M9843 2899 c-76 -38 -123 -112 -123 -194 0 -124 103 -214 243 -215
79 0 128 18 176 63 154 147 45 367 -181 367 -54 0 -84 -6 -115 -21z"/>
<path d="M7349 1532 c-28 -23 -30 -73 -4 -102 13 -14 31 -20 60 -20 50 0 78
25 78 72 0 39 -33 68 -78 68 -18 0 -43 -8 -56 -18z"/>
<path d="M7760 1475 l0 -75 39 0 c79 0 121 29 121 83 0 42 -39 67 -103 67
l-57 0 0 -75z"/>
<path d="M7760 1305 c0 -71 1 -75 24 -81 14 -3 42 -3 63 0 21 3 41 5 46 6 4 0
16 9 27 20 28 28 26 75 -5 105 -21 22 -33 25 -90 25 l-65 0 0 -75z"/>
<path d="M9908 1383 c-39 -44 -75 -163 -64 -208 7 -29 36 -33 61 -8 31 31 57
106 59 168 1 53 -1 60 -20 63 -11 2 -27 -5 -36 -15z"/>
<path d="M10525 1398 c-40 -58 -73 -234 -48 -259 19 -19 49 -1 66 39 34 80 54
184 42 221 -8 28 -40 27 -60 -1z"/>
<path d="M6680 1403 c-25 -22 -31 -36 -32 -69 -1 -59 9 -82 42 -99 38 -20 75
-19 111 2 35 21 44 48 36 106 -11 83 -96 115 -157 60z"/>
<path d="M8061 1416 c-22 -12 -50 -50 -51 -68 0 -5 45 -8 100 -8 55 0 100 2
100 5 0 4 -7 19 -15 36 -24 46 -85 62 -134 35z"/>
<path d="M8333 1420 c-58 -23 -69 -134 -18 -177 58 -51 165 -11 165 61 0 96
-67 148 -147 116z"/>
<path d="M4727 1363 c-13 -13 -7 -63 7 -63 21 0 29 17 22 46 -6 24 -17 30 -29
17z"/>
</g>
</svg>
